Coordinates
version=1
nRows=4
nColumns=63
inDegrees=yes

Units are S.I. units (second, meters, Newtons, ...)
If the header above contains a line with 'inDegrees', this indicates whether rotational values are in degrees (yes) or radians (no).

endheader
time	pelvis_tilt	pelvis_list	pelvis_rotation	pelvis_tx	pelvis_ty	pelvis_tz	hip_flexion_r	hip_adduction_r	hip_rotation_r	knee_angle_r	knee_angle_r_beta	ankle_angle_r	subtalar_angle_r	mtp_angle_r	hip_flexion_l	hip_adduction_l	hip_rotation_l	knee_angle_l	knee_angle_l_beta	ankle_angle_l	subtalar_angle_l	mtp_angle_l	L5_S1_Flex_Ext	L5_S1_Lat_Bending	L5_S1_axial_rotation	L4_L5_Flex_Ext	L4_L5_Lat_Bending	L4_L5_axial_rotation	L3_L4_Flex_Ext	L3_L4_Lat_Bending	L3_L4_axial_rotation	L2_L3_Flex_Ext	L2_L3_Lat_Bending	L2_L3_axial_rotation	L1_L2_Flex_Ext	L1_L2_Lat_Bending	L1_L2_axial_rotation	L1_T12_Flex_Ext	L1_T12_Lat_Bending	L1_T12_axial_rotation	Abs_r3	Abs_r2	Abs_r1	Abs_t1	Abs_t2	neck_flexion	neck_bending	neck_rotation	arm_flex_r	arm_add_r	arm_rot_r	elbow_flex_r	pro_sup_r	wrist_flex_r	wrist_dev_r	arm_flex_l	arm_add_l	arm_rot_l	elbow_flex_l	pro_sup_l	wrist_flex_l	wrist_dev_l
      3.96296296	     -2.71292438	     -4.78893864	     90.56222536	      0.28249222	      0.69757405	      0.93248250	      6.26806742	     -2.89310632	     -0.41304455	      8.93753259	      0.15598937	     20.79982848	      6.40522162	      0.00000000	      2.83539361	      1.61536593	     -8.31110714	      4.90342172	      0.08558085	     17.86063109	      2.79522757	      0.00000000	     -0.12558665	     -0.39708654	      0.98030685	     -0.23322696	     -0.52812509	      1.04157603	     -0.20632630	     -0.96547621	      1.04157603	     -0.14353298	     -0.96547621	      0.85776850	     -0.11661976	     -0.80973887	      0.79649932	     -0.07176021	     -0.61508705	      0.73523014	     -0.89705285	     -4.49192233	      5.45217264	      0.00000000	      0.00000000	     17.78545346	     11.18401254	     25.75038440	     47.64994477	    -25.60402971	    -57.30877098	    146.26170645	     65.78065784	     11.61807864	     15.64634014	     20.63040462	    -12.07215148	     84.42218021	     48.63496735	     88.16596880	     -8.81559364	     10.31615901
      3.98148148	     -2.71799953	     -4.69538471	     90.35924355	      0.28230430	      0.69803945	      0.93172564	      6.04754824	     -2.89129574	     -0.07013841	      8.75430267	      0.15279141	     20.59636294	      6.17308535	      0.00000000	      2.59315061	      1.65148385	     -8.45044819	      4.74589904	      0.08283156	     17.76256973	      2.77086582	      0.00000000	     -0.13107394	     -0.39793467	      0.96955419	     -0.24341741	     -0.52925311	      1.03015133	     -0.21534138	     -0.96753836	      1.03015133	     -0.14980441	     -0.96753836	      0.84835992	     -0.12171526	     -0.81146838	      0.78776278	     -0.07489565	     -0.61640081	      0.72716565	     -0.93624804	     -4.50151660	      5.39236956	      0.00000000	      0.00000000	     16.56776167	     11.60383747	     26.07988386	     48.75169075	    -26.28067484	    -52.12910778	    147.63764276	     76.36362438	      7.72938475	     11.80771193	     20.33288651	    -12.31183273	     83.81657295	     48.83642345	     87.88417166	     -8.91706794	     10.03826619
      4.00000000	     -2.66277562	     -4.59288262	     90.04947365	      0.28212204	      0.69855332	      0.93105528	      5.85733957	     -2.83918938	      0.25724766	      8.63999066	      0.15079628	     20.37092938	      6.03415835	      0.00000000	      2.33250054	      1.63709455	     -8.59223505	      4.56669767	      0.07970391	     17.69128680	      2.64255211	      0.00000000	     -0.13287417	     -0.39821041	      0.99934750	     -0.24676063	     -0.52961985	      1.06180672	     -0.21829898	     -0.96820879	      1.06180672	     -0.15186189	     -0.96820879	      0.87442906	     -0.12338696	     -0.81203067	      0.81196985	     -0.07592430	     -0.61682793	      0.74951063	     -0.94910694	     -4.50463582	      5.55807100	      0.00000000	      0.00000000	     15.24010025	     12.24161659	     25.97529910	     49.73612257	    -27.24630767	    -47.58727241	    148.54746935	     85.31621605	      4.59295958	      9.09362137	     20.15259207	    -12.43170987	     83.38872218	     48.89065060	     87.19523380	     -8.46819004	      9.91096928
      4.01851852	     -2.54183593	     -4.45994826	     89.73279490	      0.28175575	      0.69914221	      0.93062218	      5.68341083	     -2.74280639	      0.46580236	      8.59798639	      0.15006317	     20.15221207	      6.05759314	      0.00000000	      2.06911072	      1.56619586	     -8.79829266	      4.39648478	      0.07673313	     17.55959521	      2.49969088	      0.00000000	     -0.14170424	     -0.39153749	      1.05834087	     -0.26315894	     -0.52074486	      1.12448718	     -0.23280589	     -0.95198426	      1.12448718	     -0.16195377	     -0.95198426	      0.92604827	     -0.13158655	     -0.79842325	      0.85990196	     -0.08096980	     -0.60649157	      0.79375566	     -1.01217919	     -4.42915041	      5.88617444	      0.00000000	      0.00000000	     13.92411712	     12.97034051	     25.64738544	     50.90562587	    -28.36487594	    -44.72780688	    148.89499624	     87.70646163	      5.05057039	      7.99199549	     20.23432494	    -12.38823038	     83.55391540	     48.83883622	     86.04161996	     -8.02670266	      9.88409696
